<svg version="1.1" id="&#xB808;&#xC774;&#xC5B4;_1" xmlns="http://www.w3.org/2000/svg" xmlns:xlink="http://www.w3.org/1999/xlink"
	 x="0px" y="0px" width="48px" height="64px" viewBox="0 0 48 64" style="enable-background:new 0 0 48 64;" xml:space="preserve">
<path style="fill:#f9849b;" d="M48.02,22.168c0.011,0.141,0.011,0.272,0.011,0.413c0,8.014-4.675,13.478-10.141,19.038
	C33.369,46.217,27,64,24.08,64c-3.08,0-9.29-17.783-13.81-22.381C4.804,36.06,0.13,30.595,0.13,22.582c0-0.141,0-0.272,0.01-0.413
	l-0.01-0.01l0.01-0.01C0.38,9.917,11,0.06,24.08,0.06s23.7,9.856,23.939,22.088l0.011,0.01L48.02,22.168z"
  />

</svg>

